<mxfile host="app.diagrams.net" agent="Mozilla/5.0 (Windows NT 10.0; Win64; x64) AppleWebKit/537.36 (KHTML, like Gecko) Chrome/131.0.0.0 Safari/537.36 OPR/116.0.0.0" version="26.0.14">
  <diagram name="Page-1" id="1BG5TKz8CBbTJbB7rtQt">
    <mxGraphModel dx="2247" dy="659" grid="1" gridSize="10" guides="1" tooltips="1" connect="1" arrows="1" fold="1" page="1" pageScale="1" pageWidth="850" pageHeight="1100" math="0" shadow="0">
      <root>
        <mxCell id="0" />
        <mxCell id="1" parent="0" />
        <mxCell id="yM6JbzNmFY9VCsgO5a7o-11" style="edgeStyle=orthogonalEdgeStyle;rounded=0;orthogonalLoop=1;jettySize=auto;html=1;exitX=0.5;exitY=1;exitDx=0;exitDy=0;entryX=0;entryY=0.5;entryDx=0;entryDy=0;" edge="1" parent="1" source="yM6JbzNmFY9VCsgO5a7o-4" target="yM6JbzNmFY9VCsgO5a7o-10">
          <mxGeometry relative="1" as="geometry" />
        </mxCell>
        <mxCell id="yM6JbzNmFY9VCsgO5a7o-4" value="&lt;font style=&quot;font-size: 18px;&quot;&gt;distance.csv&lt;/font&gt;" style="rounded=1;whiteSpace=wrap;html=1;" vertex="1" parent="1">
          <mxGeometry x="40" y="100" width="210" height="60" as="geometry" />
        </mxCell>
        <mxCell id="yM6JbzNmFY9VCsgO5a7o-12" style="edgeStyle=orthogonalEdgeStyle;rounded=0;orthogonalLoop=1;jettySize=auto;html=1;exitX=0.5;exitY=1;exitDx=0;exitDy=0;" edge="1" parent="1" source="yM6JbzNmFY9VCsgO5a7o-5" target="yM6JbzNmFY9VCsgO5a7o-10">
          <mxGeometry relative="1" as="geometry" />
        </mxCell>
        <mxCell id="yM6JbzNmFY9VCsgO5a7o-5" value="&lt;font style=&quot;font-size: 18px;&quot;&gt;order_large.csv&lt;/font&gt;" style="rounded=1;whiteSpace=wrap;html=1;" vertex="1" parent="1">
          <mxGeometry x="310" y="100" width="210" height="60" as="geometry" />
        </mxCell>
        <mxCell id="yM6JbzNmFY9VCsgO5a7o-13" style="edgeStyle=orthogonalEdgeStyle;rounded=0;orthogonalLoop=1;jettySize=auto;html=1;exitX=0.5;exitY=1;exitDx=0;exitDy=0;entryX=1;entryY=0.5;entryDx=0;entryDy=0;" edge="1" parent="1" source="yM6JbzNmFY9VCsgO5a7o-6" target="yM6JbzNmFY9VCsgO5a7o-10">
          <mxGeometry relative="1" as="geometry" />
        </mxCell>
        <mxCell id="yM6JbzNmFY9VCsgO5a7o-6" value="&lt;font style=&quot;font-size: 18px;&quot;&gt;truck_specifications.csv&lt;/font&gt;" style="rounded=1;whiteSpace=wrap;html=1;" vertex="1" parent="1">
          <mxGeometry x="570" y="100" width="210" height="60" as="geometry" />
        </mxCell>
        <mxCell id="yM6JbzNmFY9VCsgO5a7o-10" value="&lt;font style=&quot;font-size: 18px;&quot;&gt;DataProcessor&lt;/font&gt;" style="rounded=1;whiteSpace=wrap;html=1;" vertex="1" parent="1">
          <mxGeometry x="310" y="250" width="210" height="60" as="geometry" />
        </mxCell>
        <mxCell id="yM6JbzNmFY9VCsgO5a7o-34" style="edgeStyle=orthogonalEdgeStyle;rounded=0;orthogonalLoop=1;jettySize=auto;html=1;entryX=0.5;entryY=0;entryDx=0;entryDy=0;" edge="1" parent="1" source="yM6JbzNmFY9VCsgO5a7o-14" target="yM6JbzNmFY9VCsgO5a7o-26">
          <mxGeometry relative="1" as="geometry" />
        </mxCell>
        <mxCell id="yM6JbzNmFY9VCsgO5a7o-14" value="&lt;span style=&quot;font-size: 18px;&quot;&gt;Distance Matrix Generator&lt;/span&gt;" style="rounded=1;whiteSpace=wrap;html=1;" vertex="1" parent="1">
          <mxGeometry x="-90" y="460" width="210" height="60" as="geometry" />
        </mxCell>
        <mxCell id="yM6JbzNmFY9VCsgO5a7o-33" style="edgeStyle=orthogonalEdgeStyle;rounded=0;orthogonalLoop=1;jettySize=auto;html=1;entryX=0.5;entryY=0;entryDx=0;entryDy=0;" edge="1" parent="1" source="yM6JbzNmFY9VCsgO5a7o-15" target="yM6JbzNmFY9VCsgO5a7o-28">
          <mxGeometry relative="1" as="geometry" />
        </mxCell>
        <mxCell id="yM6JbzNmFY9VCsgO5a7o-15" value="&lt;font style=&quot;font-size: 18px;&quot;&gt;Cost Calculator&lt;/font&gt;" style="rounded=1;whiteSpace=wrap;html=1;" vertex="1" parent="1">
          <mxGeometry x="160" y="460" width="210" height="60" as="geometry" />
        </mxCell>
        <mxCell id="yM6JbzNmFY9VCsgO5a7o-32" style="edgeStyle=orthogonalEdgeStyle;rounded=0;orthogonalLoop=1;jettySize=auto;html=1;exitX=0.5;exitY=1;exitDx=0;exitDy=0;entryX=0.5;entryY=0;entryDx=0;entryDy=0;" edge="1" parent="1" source="yM6JbzNmFY9VCsgO5a7o-16" target="yM6JbzNmFY9VCsgO5a7o-29">
          <mxGeometry relative="1" as="geometry" />
        </mxCell>
        <mxCell id="yM6JbzNmFY9VCsgO5a7o-16" value="&lt;font style=&quot;font-size: 18px;&quot;&gt;Time Window Processor&lt;/font&gt;" style="rounded=1;whiteSpace=wrap;html=1;" vertex="1" parent="1">
          <mxGeometry x="490" y="460" width="210" height="60" as="geometry" />
        </mxCell>
        <mxCell id="yM6JbzNmFY9VCsgO5a7o-31" style="edgeStyle=orthogonalEdgeStyle;rounded=0;orthogonalLoop=1;jettySize=auto;html=1;exitX=0.5;exitY=1;exitDx=0;exitDy=0;entryX=0.5;entryY=0;entryDx=0;entryDy=0;" edge="1" parent="1" source="yM6JbzNmFY9VCsgO5a7o-18" target="yM6JbzNmFY9VCsgO5a7o-30">
          <mxGeometry relative="1" as="geometry" />
        </mxCell>
        <mxCell id="yM6JbzNmFY9VCsgO5a7o-18" value="&lt;span style=&quot;font-size: 18px;&quot;&gt;Vehicle Capacity Handler&lt;/span&gt;" style="rounded=1;whiteSpace=wrap;html=1;" vertex="1" parent="1">
          <mxGeometry x="740" y="460" width="210" height="60" as="geometry" />
        </mxCell>
        <mxCell id="yM6JbzNmFY9VCsgO5a7o-20" value="" style="endArrow=none;html=1;rounded=0;entryX=0.5;entryY=1;entryDx=0;entryDy=0;" edge="1" parent="1" target="yM6JbzNmFY9VCsgO5a7o-10">
          <mxGeometry width="50" height="50" relative="1" as="geometry">
            <mxPoint x="415" y="390" as="sourcePoint" />
            <mxPoint x="360" y="440" as="targetPoint" />
          </mxGeometry>
        </mxCell>
        <mxCell id="yM6JbzNmFY9VCsgO5a7o-21" value="" style="endArrow=none;html=1;rounded=0;" edge="1" parent="1">
          <mxGeometry width="50" height="50" relative="1" as="geometry">
            <mxPoint y="390" as="sourcePoint" />
            <mxPoint x="850" y="390" as="targetPoint" />
          </mxGeometry>
        </mxCell>
        <mxCell id="yM6JbzNmFY9VCsgO5a7o-22" value="" style="endArrow=classic;html=1;rounded=0;entryX=0.426;entryY=-0.036;entryDx=0;entryDy=0;entryPerimeter=0;" edge="1" parent="1" target="yM6JbzNmFY9VCsgO5a7o-14">
          <mxGeometry width="50" height="50" relative="1" as="geometry">
            <mxPoint y="390" as="sourcePoint" />
            <mxPoint x="380" y="370" as="targetPoint" />
          </mxGeometry>
        </mxCell>
        <mxCell id="yM6JbzNmFY9VCsgO5a7o-23" value="" style="endArrow=classic;html=1;rounded=0;entryX=0.478;entryY=0.014;entryDx=0;entryDy=0;entryPerimeter=0;" edge="1" parent="1" target="yM6JbzNmFY9VCsgO5a7o-15">
          <mxGeometry width="50" height="50" relative="1" as="geometry">
            <mxPoint x="260" y="390" as="sourcePoint" />
            <mxPoint x="304.5" y="460" as="targetPoint" />
          </mxGeometry>
        </mxCell>
        <mxCell id="yM6JbzNmFY9VCsgO5a7o-24" value="" style="endArrow=classic;html=1;rounded=0;entryX=0.52;entryY=-0.007;entryDx=0;entryDy=0;entryPerimeter=0;" edge="1" parent="1" target="yM6JbzNmFY9VCsgO5a7o-16">
          <mxGeometry width="50" height="50" relative="1" as="geometry">
            <mxPoint x="599" y="392" as="sourcePoint" />
            <mxPoint x="594.5" y="460" as="targetPoint" />
          </mxGeometry>
        </mxCell>
        <mxCell id="yM6JbzNmFY9VCsgO5a7o-25" value="" style="endArrow=classic;html=1;rounded=0;entryX=0.426;entryY=-0.036;entryDx=0;entryDy=0;entryPerimeter=0;" edge="1" parent="1">
          <mxGeometry width="50" height="50" relative="1" as="geometry">
            <mxPoint x="850" y="392" as="sourcePoint" />
            <mxPoint x="849" y="460" as="targetPoint" />
          </mxGeometry>
        </mxCell>
        <mxCell id="yM6JbzNmFY9VCsgO5a7o-26" value="&lt;span style=&quot;font-size: 18px;&quot;&gt;Distance Matrix&amp;nbsp;&lt;/span&gt;" style="rounded=1;whiteSpace=wrap;html=1;" vertex="1" parent="1">
          <mxGeometry x="-90" y="640" width="210" height="60" as="geometry" />
        </mxCell>
        <mxCell id="yM6JbzNmFY9VCsgO5a7o-28" value="&lt;font style=&quot;font-size: 18px;&quot;&gt;Cost Matrix&lt;/font&gt;" style="rounded=1;whiteSpace=wrap;html=1;" vertex="1" parent="1">
          <mxGeometry x="160" y="640" width="210" height="60" as="geometry" />
        </mxCell>
        <mxCell id="yM6JbzNmFY9VCsgO5a7o-29" value="&lt;font style=&quot;font-size: 18px;&quot;&gt;Time Window&amp;nbsp;&lt;/font&gt;" style="rounded=1;whiteSpace=wrap;html=1;" vertex="1" parent="1">
          <mxGeometry x="490" y="640" width="210" height="60" as="geometry" />
        </mxCell>
        <mxCell id="yM6JbzNmFY9VCsgO5a7o-30" value="&lt;span style=&quot;font-size: 18px;&quot;&gt;Vehicle Constraints&lt;/span&gt;" style="rounded=1;whiteSpace=wrap;html=1;" vertex="1" parent="1">
          <mxGeometry x="740" y="640" width="210" height="60" as="geometry" />
        </mxCell>
        <mxCell id="yM6JbzNmFY9VCsgO5a7o-46" style="edgeStyle=orthogonalEdgeStyle;rounded=0;orthogonalLoop=1;jettySize=auto;html=1;exitX=0.5;exitY=1;exitDx=0;exitDy=0;entryX=0.5;entryY=0;entryDx=0;entryDy=0;" edge="1" parent="1" source="yM6JbzNmFY9VCsgO5a7o-35" target="yM6JbzNmFY9VCsgO5a7o-36">
          <mxGeometry relative="1" as="geometry" />
        </mxCell>
        <mxCell id="yM6JbzNmFY9VCsgO5a7o-35" value="&lt;font style=&quot;font-size: 18px;&quot;&gt;Route Creator&lt;/font&gt;" style="rounded=1;whiteSpace=wrap;html=1;" vertex="1" parent="1">
          <mxGeometry x="320" y="810" width="210" height="60" as="geometry" />
        </mxCell>
        <mxCell id="yM6JbzNmFY9VCsgO5a7o-36" value="&lt;font style=&quot;font-size: 18px;&quot;&gt;Optimized Route&lt;/font&gt;" style="rounded=1;whiteSpace=wrap;html=1;" vertex="1" parent="1">
          <mxGeometry x="320" y="920" width="210" height="60" as="geometry" />
        </mxCell>
        <mxCell id="yM6JbzNmFY9VCsgO5a7o-37" value="" style="endArrow=none;html=1;rounded=0;exitX=0.5;exitY=1;exitDx=0;exitDy=0;" edge="1" parent="1">
          <mxGeometry width="50" height="50" relative="1" as="geometry">
            <mxPoint x="20" y="700" as="sourcePoint" />
            <mxPoint x="20" y="760" as="targetPoint" />
          </mxGeometry>
        </mxCell>
        <mxCell id="yM6JbzNmFY9VCsgO5a7o-38" value="" style="endArrow=none;html=1;rounded=0;exitX=0.5;exitY=1;exitDx=0;exitDy=0;" edge="1" parent="1">
          <mxGeometry width="50" height="50" relative="1" as="geometry">
            <mxPoint x="264.76" y="700" as="sourcePoint" />
            <mxPoint x="264.76" y="760" as="targetPoint" />
          </mxGeometry>
        </mxCell>
        <mxCell id="yM6JbzNmFY9VCsgO5a7o-39" value="" style="endArrow=none;html=1;rounded=0;exitX=0.5;exitY=1;exitDx=0;exitDy=0;" edge="1" parent="1">
          <mxGeometry width="50" height="50" relative="1" as="geometry">
            <mxPoint x="594.76" y="700" as="sourcePoint" />
            <mxPoint x="594.76" y="760" as="targetPoint" />
          </mxGeometry>
        </mxCell>
        <mxCell id="yM6JbzNmFY9VCsgO5a7o-40" value="" style="endArrow=none;html=1;rounded=0;exitX=0.5;exitY=1;exitDx=0;exitDy=0;" edge="1" parent="1">
          <mxGeometry width="50" height="50" relative="1" as="geometry">
            <mxPoint x="850" y="700" as="sourcePoint" />
            <mxPoint x="850" y="760" as="targetPoint" />
          </mxGeometry>
        </mxCell>
        <mxCell id="yM6JbzNmFY9VCsgO5a7o-43" value="" style="endArrow=none;html=1;rounded=0;" edge="1" parent="1">
          <mxGeometry width="50" height="50" relative="1" as="geometry">
            <mxPoint x="20" y="760" as="sourcePoint" />
            <mxPoint x="850" y="760" as="targetPoint" />
          </mxGeometry>
        </mxCell>
        <mxCell id="yM6JbzNmFY9VCsgO5a7o-45" value="" style="endArrow=classic;html=1;rounded=0;entryX=0.475;entryY=0;entryDx=0;entryDy=0;entryPerimeter=0;" edge="1" parent="1" target="yM6JbzNmFY9VCsgO5a7o-35">
          <mxGeometry width="50" height="50" relative="1" as="geometry">
            <mxPoint x="420" y="760" as="sourcePoint" />
            <mxPoint x="550" y="780" as="targetPoint" />
          </mxGeometry>
        </mxCell>
      </root>
    </mxGraphModel>
  </diagram>
</mxfile>
